<svg xmlns="http://www.w3.org/2000/svg" viewBox="0 0 140 19.43"><defs><style>.cls-1{fill:#5eb3e4;}.cls-2{fill:#0082cb;}</style></defs><g id="Layer_2" data-name="Layer 2"><g id="Layer_1-2" data-name="Layer 1"><path class="cls-1" d="M24.57,18.28a.56.56,0,0,1,0,.39,1.08,1.08,0,0,1-.44.24c-.21.07-.45.13-.71.19s-.54.11-.82.15l-.86.09c-.29,0-.56,0-.8,0a7,7,0,0,1-1.58-.17,2.63,2.63,0,0,1-1.23-.66,3.07,3.07,0,0,1-.79-1.32A7.19,7.19,0,0,1,17,15.06V.52c0-.28.06-.43.18-.47a1.9,1.9,0,0,1,.48,0h3.42a1,1,0,0,1,.48.09.45.45,0,0,1,.16.41V14.17a1.9,1.9,0,0,0,.18.94c.12.21.41.32.86.32l.5,0,.49-.05c.2,0,.32,0,.37,0a.53.53,0,0,1,.1.33Z"/><path class="cls-1" d="M32.33,15.64l.66,0c.28,0,.53,0,.76-.08V5.88a.73.73,0,0,1,.09-.42.89.89,0,0,1,.53-.1h3.48c.4,0,.6.18.6.52V17.05a2.93,2.93,0,0,1-.26,1.35,1.58,1.58,0,0,1-1.18.71,7.37,7.37,0,0,1-.78.12c-.35.05-.73.08-1.14.11l-1.24.06-1.07,0a14.6,14.6,0,0,1-3.43-.35,5.18,5.18,0,0,1-2.3-1.18,4.78,4.78,0,0,1-1.29-2.13,11.09,11.09,0,0,1-.41-3.25V5.88a.73.73,0,0,1,.09-.42.93.93,0,0,1,.54-.1h3.53c.4,0,.6.18.6.52V13a8,8,0,0,0,.08,1.18,1.73,1.73,0,0,0,.33.82,1.46,1.46,0,0,0,.68.5A3.2,3.2,0,0,0,32.33,15.64Z"/><path class="cls-1" d="M47.08,5a6.73,6.73,0,0,1,4.76,1.51A6,6,0,0,1,53.46,11a3.41,3.41,0,0,1-.39,1.9,1.59,1.59,0,0,1-1.39.55H45.33a2.59,2.59,0,0,0,.21,1,1.34,1.34,0,0,0,.51.59,2,2,0,0,0,.77.28,7.41,7.41,0,0,0,1,.06,7.21,7.21,0,0,0,1.43-.14,12,12,0,0,0,1.53-.41.84.84,0,0,1,.49-.08.54.54,0,0,1,.24.27l1,2.37a.48.48,0,0,1,0,.4,1.08,1.08,0,0,1-.29.26,6.53,6.53,0,0,1-1.09.56,8.72,8.72,0,0,1-1.28.42,10.7,10.7,0,0,1-1.33.25,11.14,11.14,0,0,1-1.22.08q-3.69,0-5.32-1.73t-1.63-5.38a7.71,7.71,0,0,1,1.73-5.39A6.45,6.45,0,0,1,47.08,5Zm.16,3.87A1.86,1.86,0,0,0,46,9.3a2,2,0,0,0-.66,1.45h3.5a3,3,0,0,0-.38-1.38A1.35,1.35,0,0,0,47.24,8.84Z"/><path class="cls-2" d="M64.35,11.82l-1,2.88-1,3a6.43,6.43,0,0,1-.38.81,1.47,1.47,0,0,1-.37.43,1,1,0,0,1-.46.19,5.79,5.79,0,0,1-.65,0h-1.7a1.9,1.9,0,0,1-1.11-.28A2.29,2.29,0,0,1,57,17.7L53.84,6q-.11-.36,0-.48a.7.7,0,0,1,.47-.12H58a3,3,0,0,1,.61,0c.14,0,.23.19.31.48l.57,2.85.71,4.55h.15l.89-3.19L62,7.5a2.48,2.48,0,0,1,.61-1.08,1.66,1.66,0,0,1,1.06-.27h1.7a1.1,1.1,0,0,1,1,.35,4.88,4.88,0,0,1,.48,1l.91,2.91.79,2.79h.16l.57-4.23.52-3c0-.29.12-.46.2-.51a1.37,1.37,0,0,1,.51-.06l3.87,0a.7.7,0,0,1,.47.12q.14.12,0,.48L71.65,17.7A2.43,2.43,0,0,1,71,18.91a1.76,1.76,0,0,1-1.08.28H68.3a6.12,6.12,0,0,1-.66,0,1.12,1.12,0,0,1-.49-.19,1.51,1.51,0,0,1-.39-.43,3.93,3.93,0,0,1-.37-.81l-1-3-.92-2.9Z"/><path class="cls-2" d="M87.92,17.15a2.38,2.38,0,0,1-.08.64c0,.19-.25.37-.58.54a8.85,8.85,0,0,1-1.32.5,13.87,13.87,0,0,1-1.48.34,12.79,12.79,0,0,1-1.53.18c-.51,0-1,0-1.45,0a12.39,12.39,0,0,1-3-.32,5.39,5.39,0,0,1-2-.92,3.25,3.25,0,0,1-1.06-1.4A4.77,4.77,0,0,1,75.11,15a4.26,4.26,0,0,1,1.43-3.49,5.87,5.87,0,0,1,3.85-1.19h2.85V10a1.76,1.76,0,0,0-.06-.42.86.86,0,0,0-.25-.44,1.43,1.43,0,0,0-.54-.34,2.7,2.7,0,0,0-.93-.13c-.25,0-.52,0-.84,0l-1,.09c-.35,0-.69.08-1,.13s-.64.11-.92.18-.41.07-.5,0A.59.59,0,0,1,77,8.68l-.5-2.25a.74.74,0,0,1,0-.48.61.61,0,0,1,.29-.2,15,15,0,0,1,2.53-.61,18.54,18.54,0,0,1,2.78-.2A6.73,6.73,0,0,1,86.5,6.16a4.65,4.65,0,0,1,1.42,3.72Zm-4.71-4H81.68a3.66,3.66,0,0,0-.57.05,1.56,1.56,0,0,0-.52.2,1.06,1.06,0,0,0-.39.42,1.48,1.48,0,0,0-.15.72,1,1,0,0,0,.45.91,2.26,2.26,0,0,0,1.21.29l.68,0a2.63,2.63,0,0,0,.82-.21Z"/><path class="cls-2" d="M97.87,18.28a.52.52,0,0,1,0,.39,1.23,1.23,0,0,1-.45.24c-.21.07-.44.13-.7.19s-.54.11-.83.15l-.86.09c-.29,0-.55,0-.8,0a7.09,7.09,0,0,1-1.58-.17,2.63,2.63,0,0,1-1.23-.66,3.05,3.05,0,0,1-.78-1.32,6.89,6.89,0,0,1-.28-2.17V.52c0-.28.06-.43.17-.47A2,2,0,0,1,91,0h3.43a1,1,0,0,1,.47.09c.11.06.16.2.16.41V14.17a1.9,1.9,0,0,0,.18.94c.12.21.41.32.87.32l.49,0,.5-.05c.19,0,.31,0,.36,0a.59.59,0,0,1,.11.33Z"/><path class="cls-2" d="M105.08,8.76l-.65,0a7.34,7.34,0,0,0-.76.07v9.71a.68.68,0,0,1-.09.42,1,1,0,0,1-.54.1H99.56c-.4,0-.6-.17-.6-.52V7.35A3,3,0,0,1,99.22,6a1.64,1.64,0,0,1,1.18-.72l.78-.12,1.14-.1c.41,0,.82,0,1.24-.06l1.07,0a14.42,14.42,0,0,1,3.35.35,5.65,5.65,0,0,1,2.39,1.18,4.91,4.91,0,0,1,1.43,2.14,9.79,9.79,0,0,1,.47,3.23v6.7a.68.68,0,0,1-.09.42.91.91,0,0,1-.54.1h-3.53c-.4,0-.6-.17-.6-.52V11.43a3.26,3.26,0,0,0-.51-2A2.28,2.28,0,0,0,105.08,8.76Z"/><path class="cls-2" d="M121.47,15.64l.65,0c.28,0,.53,0,.76-.08V5.88a.73.73,0,0,1,.09-.42.91.91,0,0,1,.54-.1H127c.4,0,.61.18.61.52V17.05a2.92,2.92,0,0,1-.27,1.35,1.58,1.58,0,0,1-1.17.71c-.18,0-.44.08-.79.12s-.73.08-1.13.11L123,19.4l-1.07,0a14.57,14.57,0,0,1-3.42-.35,5.22,5.22,0,0,1-2.31-1.18,4.78,4.78,0,0,1-1.29-2.13,11.09,11.09,0,0,1-.41-3.25V5.88a.72.72,0,0,1,.1-.42.87.87,0,0,1,.53-.1h3.53c.4,0,.6.18.6.52V13a8,8,0,0,0,.08,1.18,1.73,1.73,0,0,0,.33.82,1.52,1.52,0,0,0,.68.5A3.26,3.26,0,0,0,121.47,15.64Z"/><path class="cls-2" d="M140,18.63c0,.08-.11.15-.32.22a10,10,0,0,1-2.14.43c-.7.07-1.35.1-1.94.1a4.84,4.84,0,0,1-3.44-1,3.73,3.73,0,0,1-1.06-2.83V8.73h-1.83c-.21,0-.34-.05-.39-.17a.91.91,0,0,1-.08-.37V6.33a.63.63,0,0,1,.07-.36.71.71,0,0,1,.37-.16l1.86-.48V2.93a.64.64,0,0,1,.16-.51,1,1,0,0,1,.44-.22l3.48-1.08a.54.54,0,0,1,.46,0,.53.53,0,0,1,.17.46V5.36h2.93c.22,0,.35,0,.38.1a1.52,1.52,0,0,1,0,.37V8.19a1.94,1.94,0,0,1,0,.41c0,.09-.15.13-.39.13H135.8v5.52a1,1,0,0,0,.34.89,1.9,1.9,0,0,0,1.07.24,8.86,8.86,0,0,0,1-.07c.41,0,.71-.08.92-.12a.52.52,0,0,1,.3,0c.06,0,.1.12.12.26l.39,2.85A.78.78,0,0,1,140,18.63Z"/><path class="cls-1" d="M.32,1.22A2.15,2.15,0,0,0,0,2.51V17.36a2.17,2.17,0,0,0,.32,1.32c.21.27.66.41,1.38.41H4.94V.79H1.7C1,.79.53.93.32,1.22Zm14.42,11A5,5,0,0,0,14.27,11a4.51,4.51,0,0,0-.84-1.07,4.34,4.34,0,0,0-1.24-.8V8.94a4.08,4.08,0,0,0,1.38-1.47,3.9,3.9,0,0,0,.55-2,4.83,4.83,0,0,0-.44-2.14,4.22,4.22,0,0,0-1.2-1.47,5,5,0,0,0-1.78-.83A8.62,8.62,0,0,0,8.5.79H7.06V5h.72a1.35,1.35,0,0,1,.94.31,1.16,1.16,0,0,1,.36.92,1.07,1.07,0,0,1-.45,1,1.87,1.87,0,0,1-1,.26H7.06V11.4H8a1.71,1.71,0,0,1,1.31.48,1.74,1.74,0,0,1,.46,1.25,2.24,2.24,0,0,1-.08.57,1.44,1.44,0,0,1-.28.55,1.55,1.55,0,0,1-.55.42,2.13,2.13,0,0,1-.86.16h-1v4.26H8.5A7.57,7.57,0,0,0,11,18.68a6,6,0,0,0,2-1.15,5.26,5.26,0,0,0,1.35-1.78,5.32,5.32,0,0,0,.48-2.28A6.17,6.17,0,0,0,14.74,12.2Z"/></g></g></svg>